<mxfile host="Electron" modified="2023-08-26T02:09:41.336Z" agent="Mozilla/5.0 (Windows NT 10.0; Win64; x64) AppleWebKit/537.36 (KHTML, like Gecko) draw.io/21.6.5 Chrome/114.0.5735.243 Electron/25.3.1 Safari/537.36" etag="oXzNbMR2A7vLuqWnxYt1" version="21.6.5" type="device">
  <diagram name="PÃ¡gina-1" id="vVCBUU-Lbq8rFTcsswUS">
    <mxGraphModel dx="1595" dy="1497" grid="1" gridSize="10" guides="1" tooltips="1" connect="1" arrows="1" fold="1" page="0" pageScale="1" pageWidth="827" pageHeight="1169" math="0" shadow="0">
      <root>
        <mxCell id="0" />
        <mxCell id="1" parent="0" />
        <mxCell id="3I0odagKOqSphpn_cw76-1" value="123456789451256" style="text;whiteSpace=wrap;fontSize=25;" vertex="1" parent="1">
          <mxGeometry x="180" y="80" width="230" height="50" as="geometry" />
        </mxCell>
        <mxCell id="3I0odagKOqSphpn_cw76-2" value="161565465113321" style="text;whiteSpace=wrap;fontSize=25;" vertex="1" parent="1">
          <mxGeometry x="170" y="220" width="230" height="40" as="geometry" />
        </mxCell>
        <mxCell id="3I0odagKOqSphpn_cw76-3" value="1" style="whiteSpace=wrap;html=1;aspect=fixed;" vertex="1" parent="1">
          <mxGeometry x="-80" y="660" width="80" height="80" as="geometry" />
        </mxCell>
        <mxCell id="3I0odagKOqSphpn_cw76-4" value="2" style="whiteSpace=wrap;html=1;aspect=fixed;" vertex="1" parent="1">
          <mxGeometry x="-80" y="580" width="80" height="80" as="geometry" />
        </mxCell>
        <mxCell id="3I0odagKOqSphpn_cw76-5" value="3" style="whiteSpace=wrap;html=1;aspect=fixed;" vertex="1" parent="1">
          <mxGeometry x="-80" y="500" width="80" height="80" as="geometry" />
        </mxCell>
        <mxCell id="3I0odagKOqSphpn_cw76-6" value="4" style="whiteSpace=wrap;html=1;aspect=fixed;" vertex="1" parent="1">
          <mxGeometry x="-80" y="420" width="80" height="80" as="geometry" />
        </mxCell>
        <mxCell id="3I0odagKOqSphpn_cw76-7" value="5" style="whiteSpace=wrap;html=1;aspect=fixed;" vertex="1" parent="1">
          <mxGeometry x="-80" y="340" width="80" height="80" as="geometry" />
        </mxCell>
        <mxCell id="3I0odagKOqSphpn_cw76-8" value="6" style="whiteSpace=wrap;html=1;aspect=fixed;" vertex="1" parent="1">
          <mxGeometry x="-80" y="260" width="80" height="80" as="geometry" />
        </mxCell>
        <mxCell id="3I0odagKOqSphpn_cw76-9" value="7" style="whiteSpace=wrap;html=1;aspect=fixed;" vertex="1" parent="1">
          <mxGeometry x="-80" y="180" width="80" height="80" as="geometry" />
        </mxCell>
        <mxCell id="3I0odagKOqSphpn_cw76-10" value="8" style="whiteSpace=wrap;html=1;aspect=fixed;" vertex="1" parent="1">
          <mxGeometry x="-80" y="100" width="80" height="80" as="geometry" />
        </mxCell>
        <mxCell id="3I0odagKOqSphpn_cw76-11" value="1" style="whiteSpace=wrap;html=1;aspect=fixed;" vertex="1" parent="1">
          <mxGeometry x="690" y="660" width="80" height="80" as="geometry" />
        </mxCell>
        <mxCell id="3I0odagKOqSphpn_cw76-12" value="6" style="whiteSpace=wrap;html=1;aspect=fixed;" vertex="1" parent="1">
          <mxGeometry x="690" y="580" width="80" height="80" as="geometry" />
        </mxCell>
        <mxCell id="3I0odagKOqSphpn_cw76-13" value="1" style="whiteSpace=wrap;html=1;aspect=fixed;" vertex="1" parent="1">
          <mxGeometry x="690" y="500" width="80" height="80" as="geometry" />
        </mxCell>
        <mxCell id="3I0odagKOqSphpn_cw76-14" value="5" style="whiteSpace=wrap;html=1;aspect=fixed;" vertex="1" parent="1">
          <mxGeometry x="690" y="420" width="80" height="80" as="geometry" />
        </mxCell>
        <mxCell id="3I0odagKOqSphpn_cw76-15" value="6" style="whiteSpace=wrap;html=1;aspect=fixed;" vertex="1" parent="1">
          <mxGeometry x="690" y="340" width="80" height="80" as="geometry" />
        </mxCell>
        <mxCell id="3I0odagKOqSphpn_cw76-16" value="4" style="whiteSpace=wrap;html=1;aspect=fixed;" vertex="1" parent="1">
          <mxGeometry x="690" y="260" width="80" height="80" as="geometry" />
        </mxCell>
        <mxCell id="3I0odagKOqSphpn_cw76-17" value="6" style="whiteSpace=wrap;html=1;aspect=fixed;" vertex="1" parent="1">
          <mxGeometry x="690" y="180" width="80" height="80" as="geometry" />
        </mxCell>
        <mxCell id="3I0odagKOqSphpn_cw76-18" value="5" style="whiteSpace=wrap;html=1;aspect=fixed;" vertex="1" parent="1">
          <mxGeometry x="690" y="100" width="80" height="80" as="geometry" />
        </mxCell>
        <mxCell id="3I0odagKOqSphpn_cw76-19" value="9" style="whiteSpace=wrap;html=1;aspect=fixed;" vertex="1" parent="1">
          <mxGeometry x="-80" y="20" width="80" height="80" as="geometry" />
        </mxCell>
        <mxCell id="3I0odagKOqSphpn_cw76-20" value="4" style="whiteSpace=wrap;html=1;aspect=fixed;" vertex="1" parent="1">
          <mxGeometry x="-80" y="-60" width="80" height="80" as="geometry" />
        </mxCell>
        <mxCell id="3I0odagKOqSphpn_cw76-21" value="5" style="whiteSpace=wrap;html=1;aspect=fixed;" vertex="1" parent="1">
          <mxGeometry x="-80" y="-140" width="80" height="80" as="geometry" />
        </mxCell>
        <mxCell id="3I0odagKOqSphpn_cw76-22" value="1" style="whiteSpace=wrap;html=1;aspect=fixed;" vertex="1" parent="1">
          <mxGeometry x="-80" y="-220" width="80" height="80" as="geometry" />
        </mxCell>
        <mxCell id="3I0odagKOqSphpn_cw76-23" value="2" style="whiteSpace=wrap;html=1;aspect=fixed;" vertex="1" parent="1">
          <mxGeometry x="-80" y="-300" width="80" height="80" as="geometry" />
        </mxCell>
        <mxCell id="3I0odagKOqSphpn_cw76-24" value="5" style="whiteSpace=wrap;html=1;aspect=fixed;" vertex="1" parent="1">
          <mxGeometry x="-80" y="-380" width="80" height="80" as="geometry" />
        </mxCell>
        <mxCell id="3I0odagKOqSphpn_cw76-25" value="6" style="whiteSpace=wrap;html=1;aspect=fixed;" vertex="1" parent="1">
          <mxGeometry x="-80" y="-460" width="80" height="80" as="geometry" />
        </mxCell>
        <mxCell id="3I0odagKOqSphpn_cw76-26" value="1" style="whiteSpace=wrap;html=1;aspect=fixed;" vertex="1" parent="1">
          <mxGeometry x="690" y="20" width="80" height="80" as="geometry" />
        </mxCell>
        <mxCell id="3I0odagKOqSphpn_cw76-27" value="1" style="whiteSpace=wrap;html=1;aspect=fixed;strokeWidth=1;" vertex="1" parent="1">
          <mxGeometry x="690" y="-60" width="80" height="80" as="geometry" />
        </mxCell>
        <mxCell id="3I0odagKOqSphpn_cw76-28" value="3" style="whiteSpace=wrap;html=1;aspect=fixed;strokeWidth=1;" vertex="1" parent="1">
          <mxGeometry x="690" y="-140" width="80" height="80" as="geometry" />
        </mxCell>
        <mxCell id="3I0odagKOqSphpn_cw76-29" value="3" style="whiteSpace=wrap;html=1;aspect=fixed;strokeWidth=1;" vertex="1" parent="1">
          <mxGeometry x="690" y="-220" width="80" height="80" as="geometry" />
        </mxCell>
        <mxCell id="3I0odagKOqSphpn_cw76-30" value="2" style="whiteSpace=wrap;html=1;aspect=fixed;strokeWidth=1;" vertex="1" parent="1">
          <mxGeometry x="690" y="-300" width="80" height="80" as="geometry" />
        </mxCell>
        <mxCell id="3I0odagKOqSphpn_cw76-31" value="1" style="whiteSpace=wrap;html=1;aspect=fixed;strokeWidth=1;" vertex="1" parent="1">
          <mxGeometry x="690" y="-380" width="80" height="80" as="geometry" />
        </mxCell>
        <mxCell id="3I0odagKOqSphpn_cw76-32" value="6" style="whiteSpace=wrap;html=1;aspect=fixed;strokeWidth=1;" vertex="1" parent="1">
          <mxGeometry x="690" y="-460" width="80" height="80" as="geometry" />
        </mxCell>
        <mxCell id="3I0odagKOqSphpn_cw76-33" value="" style="shape=flexArrow;endArrow=classic;html=1;rounded=0;" edge="1" parent="1">
          <mxGeometry width="50" height="50" relative="1" as="geometry">
            <mxPoint x="190" y="180" as="sourcePoint" />
            <mxPoint x="190" y="120" as="targetPoint" />
          </mxGeometry>
        </mxCell>
        <mxCell id="3I0odagKOqSphpn_cw76-34" value="285,022,254,564,577" style="text;whiteSpace=wrap;fontSize=25;" vertex="1" parent="1">
          <mxGeometry x="140" y="290" width="250" height="40" as="geometry" />
        </mxCell>
        <mxCell id="3I0odagKOqSphpn_cw76-35" value="1,019,613,335,962,583" style="text;whiteSpace=wrap;fontSize=25;" vertex="1" parent="1">
          <mxGeometry x="170" y="470" width="270" height="50" as="geometry" />
        </mxCell>
      </root>
    </mxGraphModel>
  </diagram>
</mxfile>
